<svg width="512" height="512" viewBox="0 0 512 512" fill="none" xmlns="http://www.w3.org/2000/svg">
<rect x="1" y="1" width="511" height="511" rx="180" fill="#125A9A"/>
<path d="M89.097 331.58C88.117 323.6 87.627 315.27 87.627 306.59C87.627 297.77 87.837 289.58 88.257 282.02C88.677 273.34 89.307 264.8 90.147 256.4C90.987 248.7 92.667 241.77 95.187 235.61C96.307 233.09 97.637 230.57 99.177 228.05C100.857 225.53 102.817 223.29 105.057 221.33C107.297 219.37 109.887 217.83 112.827 216.71C115.907 215.45 119.337 214.82 123.117 214.82C128.437 214.96 133.407 216.64 138.027 219.86C139.847 221.26 141.737 223.01 143.697 225.11C145.657 227.21 147.407 229.87 148.947 233.09C150.627 236.31 152.027 240.09 153.147 244.43C154.407 248.77 155.247 253.81 155.667 259.55C156.507 270.75 156.927 281.46 156.927 291.68C156.927 301.9 156.787 311 156.507 318.98C156.087 328.36 155.457 337.11 154.617 345.23C153.917 351.39 152.307 356.78 149.787 361.4C148.667 363.36 147.267 365.32 145.587 367.28C144.047 369.24 142.087 370.99 139.707 372.53C137.467 373.93 134.807 375.05 131.727 375.89C128.647 376.73 125.147 377.08 121.227 376.94C117.587 376.8 114.297 376.03 111.357 374.63C108.557 373.37 106.037 371.69 103.797 369.59C101.557 367.49 99.667 365.11 98.127 362.45C96.587 359.65 95.257 356.85 94.137 354.05C91.617 347.47 89.937 339.98 89.097 331.58ZM182.874 317.44C181.567 306.8 180.914 295.693 180.914 284.12C180.914 272.36 181.194 261.44 181.754 251.36C182.314 239.787 183.154 228.4 184.274 217.2C185.394 206.933 187.634 197.693 190.994 189.48C192.487 186.12 194.26 182.76 196.314 179.4C198.554 176.04 201.167 173.053 204.154 170.44C207.14 167.827 210.594 165.773 214.514 164.28C218.62 162.6 223.194 161.76 228.234 161.76C235.327 161.947 241.954 164.187 248.114 168.48C250.54 170.347 253.06 172.68 255.674 175.48C258.287 178.28 260.62 181.827 262.674 186.12C264.914 190.413 266.78 195.453 268.274 201.24C269.954 207.027 271.074 213.747 271.634 221.4C272.754 236.333 273.314 250.613 273.314 264.24C273.314 277.867 273.127 290 272.754 300.64C272.194 313.147 271.354 324.813 270.234 335.64C269.3 343.853 267.154 351.04 263.794 357.2C262.3 359.813 260.434 362.427 258.194 365.04C256.14 367.653 253.527 369.987 250.354 372.04C247.367 373.907 243.82 375.4 239.714 376.52C235.607 377.64 230.94 378.107 225.714 377.92C220.86 377.733 216.474 376.707 212.554 374.84C208.82 373.16 205.46 370.92 202.474 368.12C199.487 365.32 196.967 362.147 194.914 358.6C192.86 354.867 191.087 351.133 189.594 347.4C186.234 338.627 183.994 328.64 182.874 317.44ZM306.999 303.3C305.365 290 304.549 276.117 304.549 261.65C304.549 246.95 304.899 233.3 305.599 220.7C306.299 206.233 307.349 192 308.749 178C310.149 165.167 312.949 153.617 317.149 143.35C319.015 139.15 321.232 134.95 323.799 130.75C326.599 126.55 329.865 122.817 333.599 119.55C337.332 116.283 341.649 113.717 346.549 111.85C351.682 109.75 357.399 108.7 363.699 108.7C372.566 108.933 380.849 111.733 388.549 117.1C391.582 119.433 394.732 122.35 397.999 125.85C401.266 129.35 404.182 133.783 406.749 139.15C409.549 144.517 411.882 150.817 413.749 158.05C415.849 165.283 417.249 173.683 417.949 183.25C419.349 201.917 420.049 219.767 420.049 236.8C420.049 253.833 419.816 269 419.349 282.3C418.649 297.933 417.599 312.517 416.199 326.05C415.032 336.317 412.349 345.3 408.149 353C406.282 356.267 403.949 359.533 401.149 362.8C398.582 366.067 395.316 368.983 391.349 371.55C387.615 373.883 383.182 375.75 378.049 377.15C372.916 378.55 367.082 379.133 360.549 378.9C354.482 378.667 348.999 377.383 344.099 375.05C339.432 372.95 335.232 370.15 331.499 366.65C327.765 363.15 324.615 359.183 322.049 354.75C319.482 350.083 317.265 345.417 315.399 340.75C311.199 329.783 308.399 317.3 306.999 303.3Z" fill="white"/>
</svg>
